# xmcd CD database file
#
# Track frame offsets:
#	150
#	34155
#	55821
#	82872
#	106829
#	135347
#	162528
#	189397
#	206606
#	234102
#	265760
#	299802
#
# Disc length: 4435 seconds
#
# Revision: 0
# Processed by: cddbd v1.5.2PL0 Copyright (c) Steve Scherf et al.
# Submitted via: CDex 1.51
#
DISCID=9f11510c
DTITLE=Elsberg, Marc - Blackout - Morgen ist es zu spät
DYEAR=1900
DGENRE=Hörbuch
TTITLE0=84 Blackout - Morgen ist es zu spät
TTITLE1=85 Blackout - Morgen ist es zu spät
TTITLE2=86 Blackout - Morgen ist es zu spät
TTITLE3=87 Blackout - Morgen ist es zu spät
TTITLE4=88 Blackout - Morgen ist es zu spät
TTITLE5=89 Blackout - Morgen ist es zu spät
TTITLE6=90 Blackout - Morgen ist es zu spät
TTITLE7=91 Blackout - Morgen ist es zu spät
TTITLE8=92 Blackout - Morgen ist es zu spät
TTITLE9=93 Blackout - Morgen ist es zu spät
TTITLE10=94 Blackout - Morgen ist es zu spät
TTITLE11=95 Blackout - Morgen ist es zu spät
EXTD=
EXTT0=
EXTT1=
EXTT2=
EXTT3=
EXTT4=
EXTT5=
EXTT6=
EXTT7=
EXTT8=
EXTT9=
EXTT10=
EXTT11=
PLAYORDER=
